<svg width="455" height="430" viewBox="0 0 455 430" fill="none" xmlns="http://www.w3.org/2000/svg">
<rect width="455" height="430" fill="black"/>
<path d="M154.399 169.084C169.531 169.084 181.798 156.757 181.798 141.55C181.798 126.343 169.531 114.016 154.399 114.016C139.267 114.016 127 126.343 127 141.55C127 156.757 139.267 169.084 154.399 169.084Z" fill="#FA6E2F"/>
<path d="M254.953 215.066C254.943 209.389 253.181 203.854 249.909 199.225C246.638 194.596 242.018 191.101 236.687 189.221V167.377C240.493 166.003 243.948 163.797 246.802 160.918C249.656 158.038 251.838 154.558 253.19 150.728H274.808C276.167 154.57 278.361 158.059 281.23 160.942C284.099 163.826 287.571 166.03 291.394 167.396V189.239C285.303 191.42 280.175 195.694 276.917 201.306C273.659 206.919 272.481 213.508 273.589 219.909C274.698 226.311 278.024 232.112 282.977 236.288C287.931 240.464 294.194 242.745 300.66 242.729C307.126 242.713 313.378 240.4 318.311 236.199C323.244 231.998 326.54 226.18 327.617 219.773C328.694 213.367 327.483 206.784 324.196 201.187C320.91 195.592 315.762 191.343 309.66 189.193V167.386C314.021 165.846 317.922 163.22 320.998 159.754C324.075 156.288 326.226 152.094 327.252 147.565C328.277 143.036 328.143 138.319 326.862 133.857C325.581 129.394 323.195 125.33 319.927 122.046C316.658 118.761 312.615 116.363 308.174 115.076C303.733 113.789 299.039 113.654 294.533 114.685C290.026 115.715 285.852 117.877 282.403 120.969C278.954 124.061 276.341 127.981 274.808 132.363H253.19C251.655 127.978 249.038 124.057 245.585 120.965C242.131 117.874 237.953 115.714 233.442 114.687C228.931 113.661 224.235 113.801 219.792 115.095C215.35 116.39 211.307 118.796 208.042 122.088C204.777 125.38 202.397 129.451 201.124 133.919C199.851 138.388 199.728 143.108 200.765 147.638C201.802 152.167 203.965 156.358 207.053 159.819C210.141 163.279 214.053 165.895 218.421 167.423V189.212C213.086 191.085 208.464 194.579 205.192 199.21C201.922 203.84 200.165 209.379 200.165 215.057C200.165 220.736 201.922 226.274 205.192 230.905C208.464 235.535 213.086 239.029 218.421 240.903V262.7C214.572 264.06 211.076 266.268 208.189 269.164C205.301 272.059 203.096 275.568 201.735 279.432H180.135C178.779 275.582 176.584 272.084 173.712 269.194C170.839 266.304 167.361 264.095 163.531 262.728V240.93C169.629 238.784 174.775 234.54 178.06 228.949C181.345 223.358 182.558 216.781 181.485 210.378C180.411 203.976 177.119 198.161 172.192 193.961C167.265 189.762 161.018 187.447 154.557 187.428C148.097 187.408 141.837 189.685 136.885 193.855C131.932 198.025 128.606 203.82 127.494 210.215C126.382 216.611 127.556 223.196 130.808 228.807C134.059 234.417 139.18 238.692 145.265 240.875V262.719C140.907 264.259 137.009 266.884 133.934 270.349C130.86 273.814 128.709 278.005 127.683 282.531C126.657 287.057 126.789 291.771 128.067 296.232C129.345 300.693 131.727 304.757 134.991 308.041C138.255 311.326 142.294 313.726 146.731 315.017C151.169 316.31 155.859 316.449 160.365 315.425C164.871 314.403 169.044 312.246 172.497 309.162C175.949 306.079 178.568 302.165 180.108 297.788H201.753C203.291 302.162 205.905 306.072 209.353 309.156C212.801 312.24 216.969 314.396 221.47 315.425C225.971 316.451 230.658 316.317 235.093 315.033C239.529 313.751 243.568 311.359 246.836 308.081C250.103 304.805 252.491 300.751 253.778 296.296C255.065 291.842 255.209 287.132 254.195 282.607C253.182 278.082 251.045 273.888 247.983 270.417C244.922 266.945 241.036 264.31 236.687 262.755V240.912C242.019 239.031 246.64 235.535 249.912 230.904C253.183 226.273 254.945 220.746 254.953 215.066Z" fill="#FA6E2F"/>
<path d="M300.524 316.117C315.656 316.117 327.923 303.79 327.923 288.583C327.923 273.377 315.656 261.049 300.524 261.049C285.392 261.049 273.125 273.377 273.125 288.583C273.125 303.79 285.392 316.117 300.524 316.117Z" fill="#FA6E2F"/>
</svg>
