<svg width="133" height="157" viewBox="0 0 133 157" fill="none" xmlns="http://www.w3.org/2000/svg">
<rect width="133" height="157" fill="#278B58"/>
<path d="M26.9517 72.3472C24.165 72.3472 22.6255 69.1139 24.3822 66.9506L58.8517 24.5024C60.1699 22.879 62.1497 21.9364 64.2409 21.9364L104.125 21.9364C106.912 21.9364 108.451 25.1696 106.694 27.3329L72.2249 69.7811C70.9066 71.4045 68.9268 72.3472 66.8356 72.3472H26.9517Z" fill="#59F5A5" fill-opacity="0.6"/>
<path d="M28.0298 103.589C25.2431 103.589 23.7036 100.356 25.4603 98.1928L59.6303 56.1134C61.138 54.2567 63.4023 53.1786 65.7941 53.1786L105.203 53.1786C107.99 53.1786 109.529 56.4118 107.772 58.5751L73.303 101.023C71.9848 102.647 70.005 103.589 67.9138 103.589H28.0298Z" fill="white"/>
<path d="M27.9127 134C25.126 134 23.5865 130.767 25.3431 128.603L59.8126 86.1553C61.1308 84.5319 63.1106 83.5892 65.2018 83.5892H105.086C107.872 83.5892 109.412 86.8225 107.655 88.9858L73.1858 131.434C71.8676 133.057 69.8878 134 67.7966 134H27.9127Z" fill="#59F5A5" fill-opacity="0.6"/>
</svg>
