<svg width="32" height="32" viewBox="0 0 32 32" fill="none" xmlns="http://www.w3.org/2000/svg">
<rect width="32" height="32" fill="#2C8EEA"/>
<circle cx="15.5" cy="15.5" r="12.5" fill="#2C8EEA"/>
<path d="M23.4871 13.1477C23.2423 17.397 19.5798 20.6443 15.3067 20.4009C11.0336 20.1574 7.76809 16.5153 8.01291 12.266C8.25774 8.01674 11.9202 4.76938 16.1933 5.01284C20.4664 5.2563 23.7319 8.89839 23.4871 13.1477Z" fill="white"/>
<path d="M9.53949 17.1552L15.4482 26.2105L22.0604 17.3808L9.53949 17.1552Z" fill="white"/>
<path d="M15.4717 18.196C14.5011 18.196 13.6844 17.9813 13.0217 17.552C12.3591 17.1133 11.8924 16.5207 11.6217 15.774L13.2737 14.808C13.6564 15.8067 14.4077 16.306 15.5277 16.306C16.0691 16.306 16.4657 16.208 16.7177 16.012C16.9697 15.816 17.0957 15.5687 17.0957 15.27C17.0957 14.9247 16.9417 14.6587 16.6337 14.472C16.3257 14.276 15.7751 14.066 14.9817 13.842C14.5431 13.7113 14.1697 13.5807 13.8617 13.45C13.5631 13.3193 13.2597 13.1467 12.9517 12.932C12.6531 12.708 12.4244 12.428 12.2657 12.092C12.1071 11.756 12.0277 11.364 12.0277 10.916C12.0277 10.0293 12.3404 9.32467 12.9657 8.802C13.6004 8.27 14.3611 8.004 15.2477 8.004C16.0411 8.004 16.7364 8.2 17.3337 8.592C17.9404 8.97467 18.4117 9.51133 18.7477 10.202L17.1237 11.14C16.7317 10.3 16.1064 9.88 15.2477 9.88C14.8464 9.88 14.5291 9.97333 14.2957 10.16C14.0717 10.3373 13.9597 10.5707 13.9597 10.86C13.9597 11.168 14.0857 11.42 14.3377 11.616C14.5991 11.8027 15.0937 12.008 15.8217 12.232C16.1204 12.3253 16.3444 12.4 16.4937 12.456C16.6524 12.5027 16.8624 12.582 17.1237 12.694C17.3944 12.7967 17.5997 12.8947 17.7397 12.988C17.8891 13.0813 18.0571 13.2073 18.2437 13.366C18.4304 13.5247 18.5704 13.688 18.6637 13.856C18.7664 14.024 18.8504 14.2293 18.9157 14.472C18.9904 14.7053 19.0277 14.962 19.0277 15.242C19.0277 16.1473 18.6964 16.866 18.0337 17.398C17.3804 17.93 16.5264 18.196 15.4717 18.196Z" fill="#2C8EEA"/>
</svg>
