<svg width="157" height="157" viewBox="0 0 157 157" fill="none" xmlns="http://www.w3.org/2000/svg">
<rect width="157" height="157" fill="black"/>
<path d="M43.0994 68.3746C43.0994 77.3599 48.4196 85.1027 56.0817 88.6246H43.0994C43.0994 100.927 53.0722 110.9 65.3744 110.9C74.3597 110.9 82.1024 105.579 85.6244 97.9173V110.9C97.9265 110.9 107.899 100.927 107.899 88.6246C107.899 79.6393 102.579 71.8965 94.917 68.3746H107.899C107.899 56.0725 97.9265 46.0996 85.6244 46.0996C76.639 46.0996 68.8963 51.4198 65.3744 59.0819V46.0996C53.0722 46.0996 43.0994 56.0725 43.0994 68.3746Z" fill="#E6255B"/>
<path d="M85.6245 78.4998C85.6245 84.0916 81.0914 88.6248 75.4995 88.6248C69.9076 88.6248 65.3745 84.0916 65.3745 78.4998C65.3745 72.9079 69.9076 68.3748 75.4995 68.3748C81.0914 68.3748 85.6245 72.9079 85.6245 78.4998Z" fill="black"/>
</svg>
